<svg width="11" height="11" viewBox="0 0 11 11" fill="none" xmlns="http://www.w3.org/2000/svg">
<path d="M6.27585 1.30972L7.08821 3.02212C7.19949 3.25716 7.50086 3.49261 7.75791 3.5379L9.28673 3.82752C10.2657 4.01082 10.4766 4.72684 9.75947 5.41842L8.53822 6.58964C8.3343 6.78596 8.21045 7.177 8.2702 7.45441L8.57994 8.94209C8.8233 10.1166 8.19397 10.5579 7.17573 9.92508L5.75331 9.04091C5.49429 8.87934 5.06721 8.87391 4.80526 9.02091L3.34777 9.84054C2.30446 10.4263 1.69281 9.95984 1.98608 8.79774L2.36053 7.32724C2.43046 7.05235 2.32848 6.65635 2.13216 6.45243L0.960954 5.23115C0.273842 4.51184 0.514667 3.80579 1.49886 3.66263L3.03554 3.4402C3.29501 3.40053 3.6063 3.18432 3.72533 2.95203L4.61008 1.27247C5.08614 0.36568 5.8374 0.383015 6.27585 1.30972Z" fill="#6B7280"/>
</svg>
